# xmcd CD database file
#
# Track frame offsets:
#	150
#	12084
#	26703
#	43247
#	57474
#	75998
#	91246
#	114201
#	140260
#
# Disc length: 2007 seconds
#
# Revision: 0
# Processed by: cddbd v1.5.2PL0 Copyright (c) Steve Scherf et al.
# Submitted via: CDex 1.70beta2
#
DISCID=6607d509
DTITLE=Wes Montgomery - Best of Wes Montgomery
DYEAR=2012
DGENRE=Jazz
TTITLE0=キャラヴァン
TTITLE1=ウエスト・コースト・ブルース
TTITLE2=ボーン・トゥ・ビー・ブルー
TTITLE3=夢のカリフォルニア
TTITLE4=サニー
TTITLE5=テキーラ
TTITLE6=インプレッションズ (LIVE) 
TTITLE7=ア・デイ・イン・ザ・ライフ
TTITLE8=いそしぎ
EXTD=YEAR: 2012
EXTT0=
EXTT1=
EXTT2=
EXTT3=
EXTT4=
EXTT5=
EXTT6=
EXTT7=
EXTT8=
PLAYORDER=
